<svg width="234" height="160" viewBox="0 0 234 160" fill="none" xmlns="http://www.w3.org/2000/svg">
<path d="M117 148C154.555 148 185 117.555 185 80C185 42.4446 154.555 12 117 12C79.4446 12 49 42.4446 49 80C49 117.555 79.4446 148 117 148Z" fill="url(#paint0_linear_178_326)"/>
<path d="M147.4 56H86.6C81.2981 56 77 60.2981 77 65.6V94.4C77 99.7019 81.2981 104 86.6 104H147.4C152.702 104 157 99.7019 157 94.4V65.6C157 60.2981 152.702 56 147.4 56Z" fill="#F4AD30"/>
<path d="M117.8 68H88.2C86.4327 68 85 69.4327 85 71.2C85 72.9673 86.4327 74.4 88.2 74.4H117.8C119.567 74.4 121 72.9673 121 71.2C121 69.4327 119.567 68 117.8 68Z" fill="white"/>
<path d="M145 84C149.418 84 153 80.4183 153 76C153 71.5817 149.418 68 145 68C140.582 68 137 71.5817 137 76C137 80.4183 140.582 84 145 84Z" fill="#FCD34D"/>
<path opacity="0.8" d="M157 84C161.418 84 165 80.4183 165 76C165 71.5817 161.418 68 157 68C152.582 68 149 71.5817 149 76C149 80.4183 152.582 84 157 84Z" fill="#CA6C2F"/>
<path d="M85 88H105" stroke="white" stroke-width="3.2" stroke-linecap="round"/>
<path d="M117 156C158.974 156 193 121.974 193 80C193 38.0264 158.974 4 117 4C75.0264 4 41 38.0264 41 80C41 121.974 75.0264 156 117 156Z" stroke="#F4AD30" stroke-width="1.6" stroke-dasharray="3.2 3.2"/>
<defs>
<linearGradient id="paint0_linear_178_326" x1="49" y1="12" x2="13649" y2="13612" gradientUnits="userSpaceOnUse">
<stop stop-color="#F4AD30" stop-opacity="0.2"/>
<stop offset="1" stop-color="#F4AD30" stop-opacity="0.1"/>
</linearGradient>
</defs>
</svg>
