<svg width="234" height="160" viewBox="0 0 234 160" fill="none" xmlns="http://www.w3.org/2000/svg">
<path d="M117 148C154.555 148 185 117.555 185 80C185 42.4446 154.555 12 117 12C79.4446 12 49 42.4446 49 80C49 117.555 79.4446 148 117 148Z" fill="url(#paint0_linear_178_438)"/>
<path d="M85 80H149" stroke="#F4AD30" stroke-width="6.4" stroke-linecap="round"/>
<path d="M117 96C125.837 96 133 88.8366 133 80C133 71.1634 125.837 64 117 64C108.163 64 101 71.1634 101 80C101 88.8366 108.163 96 117 96Z" fill="#F4AD30"/>
<path d="M117.223 86.9456V69.4911H118.341V86.9456H117.223ZM120.189 75.2525C120.134 74.7025 119.9 74.2752 119.487 73.9706C119.073 73.6661 118.512 73.5138 117.803 73.5138C117.321 73.5138 116.914 73.582 116.582 73.7184C116.25 73.8502 115.996 74.0343 115.819 74.2706C115.646 74.507 115.559 74.7752 115.559 75.0752C115.55 75.3252 115.603 75.5434 115.716 75.7297C115.834 75.9161 115.996 76.0775 116.2 76.2138C116.405 76.3456 116.641 76.4616 116.909 76.5616C117.178 76.657 117.464 76.7388 117.769 76.807L119.023 77.107C119.632 77.2434 120.191 77.4252 120.7 77.6525C121.209 77.8797 121.65 78.1593 122.023 78.4911C122.396 78.8229 122.684 79.2138 122.889 79.6638C123.098 80.1138 123.205 80.6297 123.209 81.2116C123.205 82.0661 122.987 82.807 122.555 83.4343C122.128 84.057 121.509 84.5411 120.7 84.8866C119.896 85.2275 118.925 85.3979 117.789 85.3979C116.662 85.3979 115.68 85.2252 114.844 84.8797C114.012 84.5343 113.362 84.0229 112.894 83.3456C112.43 82.6638 112.187 81.8206 112.164 80.8161H115.021C115.053 81.2843 115.187 81.6752 115.423 81.9888C115.664 82.2979 115.984 82.532 116.384 82.6911C116.789 82.8456 117.246 82.9229 117.755 82.9229C118.255 82.9229 118.689 82.8502 119.057 82.7047C119.43 82.5593 119.719 82.357 119.923 82.0979C120.128 81.8388 120.23 81.5411 120.23 81.2047C120.23 80.8911 120.137 80.6275 119.95 80.4138C119.769 80.2002 119.5 80.0184 119.146 79.8684C118.796 79.7184 118.366 79.582 117.857 79.4593L116.337 79.0775C115.159 78.7911 114.23 78.3434 113.548 77.7343C112.866 77.1252 112.528 76.3047 112.532 75.2729C112.528 74.4275 112.753 73.6888 113.207 73.057C113.666 72.4252 114.296 71.932 115.096 71.5775C115.896 71.2229 116.805 71.0456 117.823 71.0456C118.859 71.0456 119.764 71.2229 120.537 71.5775C121.314 71.932 121.919 72.4252 122.35 73.057C122.782 73.6888 123.005 74.4206 123.019 75.2525H120.189Z" fill="white"/>
<path d="M97 64C117 48 137 48 157 64" stroke="#CA6C2F" stroke-width="2.4" stroke-linecap="round" stroke-dasharray="3.2 3.2"/>
<path d="M97 96C117 112 137 112 157 96" stroke="#CA6C2F" stroke-width="2.4" stroke-linecap="round" stroke-dasharray="3.2 3.2"/>
<path d="M117 156C158.974 156 193 121.974 193 80C193 38.0264 158.974 4 117 4C75.0264 4 41 38.0264 41 80C41 121.974 75.0264 156 117 156Z" stroke="#F4AD30" stroke-width="1.6" stroke-dasharray="3.2 3.2"/>
<defs>
<linearGradient id="paint0_linear_178_438" x1="49" y1="12" x2="13649" y2="13612" gradientUnits="userSpaceOnUse">
<stop stop-color="#F4AD30" stop-opacity="0.2"/>
<stop offset="1" stop-color="#F4AD30" stop-opacity="0.1"/>
</linearGradient>
</defs>
</svg>
